<svg xmlns="http://www.w3.org/2000/svg" width="24" height="24" viewBox="0 0 24 24" fill="none">
  <path d="M20.7891 19.6969L15.7828 14.6438C16.7625 13.4156 17.3531 11.8594 17.3531 10.1672C17.3531 6.20625 14.1422 2.99532 10.1766 2.99532C6.21094 2.99532 3 6.21094 3 10.1719C3 14.1328 6.21094 17.3438 10.1766 17.3438C11.8922 17.3438 13.4625 16.7438 14.7 15.7406L19.6734 20.7609C19.8234 20.9203 20.0297 21 20.2313 21C20.4234 21 20.6156 20.9297 20.7609 20.7891C21.0703 20.4938 21.0797 20.0063 20.7891 19.6969ZM10.1766 15.8016C8.67188 15.8016 7.25625 15.2156 6.19219 14.1516C5.12813 13.0875 4.54219 11.6719 4.54219 10.1719C4.54219 8.66719 5.12813 7.25157 6.19219 6.19219C7.25625 5.12813 8.67188 4.54219 10.1766 4.54219C11.6813 4.54219 13.0969 5.12813 14.1609 6.19219C15.225 7.25625 15.8109 8.67188 15.8109 10.1719C15.8109 11.6766 15.225 13.0922 14.1609 14.1516C13.0969 15.2156 11.6813 15.8016 10.1766 15.8016Z" fill="#FF00A8"/>
</svg>